<svg id="Layer_1" enable-background="new 0 0 512 512" height="512" viewBox="0 0 512 512" width="512" xmlns="http://www.w3.org/2000/svg"><path d="m208.181.001h-179.913c-15.586 0-28.268 12.681-28.268 28.268v179.912c0 15.586 12.682 28.266 28.268 28.266h179.912c15.586 0 28.266-12.681 28.266-28.266v-179.912c.001-15.587-12.679-28.268-28.265-28.268zm12.266 208.18c0 6.764-5.503 12.267-12.267 12.267h-179.912c-6.765 0-12.269-5.503-12.269-12.267v-179.912c0-6.765 5.504-12.268 12.269-12.268h179.912c6.764 0 12.267 5.503 12.267 12.268zm263.285 28.266c15.587 0 28.267-12.681 28.267-28.266v-179.912c0-15.587-12.681-28.267-28.267-28.267h-179.913c-15.586 0-28.266 12.681-28.266 28.267v179.912c0 15.586 12.681 28.266 28.266 28.266h6.231l-.26 85.061-2.421-.007c-.047 0-.094 0-.141 0-8.335 0-16.198 3.254-22.155 9.171-5.993 5.955-9.305 13.858-9.323 22.248l-.198 67.014c-.032 14.332 4.822 27.035 14.43 37.758l46.29 51.646c1.518 1.692 3.684 2.66 5.957 2.66h127.84c3.13 0 5.972-1.825 7.274-4.671l29.277-63.968c3.463-7.545 5.09-14.927 5.123-23.241l.257-86.117c.056-21.2-15.126-30.899-29.256-30.939-.03 0-.059 0-.089 0-5.964 0-12.003 1.688-17.194 4.847-4.294-13.807-17.181-21-29.961-21.036-.031 0-.062 0-.093 0-8.461 0-16.972 3.147-23.014 9.284-6.06-6.803-15.011-10.316-23.913-10.344-.036 0-.072 0-.108 0-5.332 0-10.685 1.25-15.429 3.708l.162-53.074zm-179.913-16c-6.764 0-12.267-5.503-12.267-12.267v-179.911c0-6.765 5.503-12.268 12.267-12.268h179.913c6.765 0 12.268 5.503 12.268 12.268v179.912c0 6.764-5.503 12.267-12.268 12.267h-110.578l.006-2.017c.038-17.387-14.059-31.563-31.407-31.601-.047 0-.094 0-.14 0-17.31 0-31.432 14.06-31.508 31.418l-.007 2.2h-6.279zm84.55 81.366h.062c7.157.023 15.505 4.067 15.474 15.394l-.028 11.65c-.011 4.418 3.562 8.009 7.98 8.02h.02c4.409 0 7.989-3.569 8-7.98l.026-10.698c0-.015.002-.029.002-.043.031-11.284 8.357-15.283 15.501-15.283h.052c7.171.02 15.532 4.06 15.502 15.362l-.058 11.226c-.002.517.048 1.021.139 1.511-.082.929-.136 1.874-.139 2.843-.014 4.418 3.558 8.011 7.976 8.024h.025c4.406 0 7.985-3.565 7.999-7.976.033-10.868 9.424-14.802 15.756-14.802h.043c3.13.009 13.337 1.109 13.301 14.895l-.256 86.107c-.023 6.024-1.153 11.151-3.668 16.63l-27.143 59.305h-119.13l-43.905-48.985c-6.984-7.795-10.368-16.641-10.345-27.037l.198-67.015c.009-4.115 1.643-8 4.601-10.938 2.937-2.917 6.798-4.521 10.893-4.521h.069l2.429.007-.146 47.867c-.014 4.418 3.558 8.011 7.976 8.024h.025c4.406 0 7.985-3.565 7.999-7.976l.171-55.87c0-.001 0-.002 0-.003s0-.002 0-.003l.34-111.242c.037-8.55 6.987-15.477 15.525-15.477h.069c8.543.019 15.478 7.002 15.46 15.56l-.3 98.258c-.002.138-.011.271-.011.41 0 .068.008.135.01.203l-.038 12.388c-.014 4.418 3.558 8.011 7.976 8.024h.025c4.406 0 7.985-3.565 7.999-7.976l.039-12.794c.144-11.13 8.403-15.089 15.505-15.089zm-180.188-26.26h-179.913c-15.586 0-28.268 12.68-28.268 28.267v179.911c0 15.587 12.682 28.267 28.268 28.267h179.912c15.586 0 28.266-12.681 28.266-28.267v-179.911c.001-15.587-12.679-28.267-28.265-28.267zm12.266 208.178c0 6.765-5.503 12.268-12.267 12.268h-179.912c-6.765 0-12.269-5.503-12.269-12.268v-179.911c0-6.765 5.504-12.268 12.269-12.268h179.912c6.764 0 12.267 5.503 12.267 12.268zm-34.191-50.943c-15.493 13-36.34 20.618-58.7 21.452-21.197.797-40.868-4.758-53.956-15.222-17.343-13.868-24.173-33.857-18.738-54.844 6.61-25.526 28.895-45.07 56.775-49.791 21.497-3.644 41.743 1.475 54.165 13.688 10.267 10.094 14.353 24.232 11.819 40.894-2.163 14.328-10.232 27.161-20.544 32.686-2.92 1.555-5.288.231-6.171-.41-.883-.643-2.871-2.487-2.287-5.748l10.233-57.145c.778-4.349-2.116-8.506-6.465-9.285-4.341-.777-8.507 2.114-9.285 6.465l-.379 2.116c-4.032-4.05-9.038-7.164-14.781-8.904-15.175-4.57-31.014 1.826-42.369 17.1-11.631 15.644-17.401 40.556-5.933 57.89 5.727 8.686 15.132 13.424 26.06 13.424 2.685 0 5.463-.287 8.299-.87 7.651-1.575 14.884-5.075 20.92-9.765 1.526 2.966 3.741 5.599 6.572 7.66 6.808 4.953 15.663 5.564 23.128 1.583 14.843-7.954 25.887-24.97 28.82-44.399 3.29-21.628-2.542-41.055-16.421-54.701-16.071-15.802-41.511-22.55-68.054-18.055-34.087 5.771-61.404 29.933-69.592 61.555-6.981 26.96 2.078 53.633 24.235 71.35 15.069 12.049 36.746 18.799 60.029 18.799 1.499 0 3.005-.027 4.516-.084 25.896-.966 50.183-9.91 68.388-25.183 3.384-2.84 3.826-7.887.986-11.271-2.839-3.383-7.885-3.824-11.27-.985zm-75.48-12.173c-5.632 1.16-13.292 1.115-17.784-5.699-6.434-9.724-4.103-26.717 5.422-39.526 2.939-3.954 10.168-12.098 19.795-12.098 1.637 0 3.343.235 5.108.767 8.392 2.543 16.111 11.933 13.891 24.324-.015.083-.02.166-.032.248l-1.87 10.442c-.007.038-.019.074-.026.112-1.678 9.381-12.67 18.994-24.504 21.43zm72.199-274.415-28.374-14.697c-6.281-3.286-12.98-1.899-16.31 3.399l-5.463 8.777c-5.905-3.248-14.108-9.667-22.452-17.606-7.937-8.342-14.355-16.543-17.607-22.456l8.781-5.488c5.204-3.242 6.633-10.088 3.412-16.253l-14.723-28.424c-2.251-4.312-5.738-7.341-9.821-8.529-2.657-.774-6.819-1.121-11.56 1.615l-.002.002c-.646.372-1.312.751-1.989 1.137-6.828 3.885-14.565 8.287-18.205 15.098-4.945 9.193-5.67 23.487-1.844 36.422 6.497 21.924 17.857 41.013 33.7 56.67 15.722 15.907 34.81 27.267 56.738 33.766 5.523 1.633 11.296 2.437 16.811 2.437 7.396 0 14.333-1.445 19.588-4.271 6.875-3.674 11.287-11.477 15.179-18.362.359-.636.713-1.26 1.047-1.843 2.742-4.752 2.395-8.92 1.621-11.58-1.187-4.081-4.209-7.561-8.527-9.814zm-8.068 15.361c-2.395 4.237-6.017 10.642-8.811 12.135-5.408 2.908-15.63 3.157-24.296.595-19.309-5.723-36.098-15.706-49.968-29.738-13.968-13.806-23.951-30.596-29.672-49.898-2.565-8.674-2.316-18.893.603-24.319 1.471-2.751 7.816-6.362 12.017-8.751.431-.245.856-.487 1.275-.728l13.437 25.94-7.046 4.403c-6.163 3.82-8.195 10.844-5.055 17.484 4.908 10.351 15.6 22.341 21.536 28.567l.27.27c6.226 5.936 18.216 16.626 28.576 21.54 6.63 3.135 13.655 1.104 17.468-5.046l4.396-7.064 25.935 13.434c-.219.386-.441.778-.665 1.176zm159.526 12.979h59.329 59.356c7.771 0 14.095-6.323 14.095-14.095v-84.442c0-7.771-6.323-14.094-14.095-14.094h-59.356-59.329c-7.771 0-14.094 6.322-14.094 14.094v84.443c.001 7.771 6.323 14.094 14.094 14.094zm37.586-56.321-35.68 30.828v-61.649zm-22.193 40.321 34.431-29.75 4.275 3.693c1.502 1.298 3.365 1.946 5.229 1.946 1.863 0 3.728-.648 5.229-1.945l4.289-3.704 34.433 29.76h-43.952zm65.693-40.33 35.694-30.828v61.677zm22.183-40.301-43.94 37.95-43.932-37.95h43.932z"></path></svg>