<svg height="512" viewBox="0 0 60 61" width="512" xmlns="http://www.w3.org/2000/svg"><g id="Page-1" fill="none" fill-rule="evenodd"><g id="056---Hardhat-and-Trowel" fill="rgb(0,0,0)" fill-rule="nonzero"><path id="Shape" d="m3 35h25.64c.1025225-.0041876.2037532-.0244338.3-.06.9498792 1.8128225 2.0684916 3.5320906 3.341 5.135l-2.1 2.1c-.7248616-.2583698-1.5336698-.0779433-2.08.464l-10.1 10.1c-1.5615278 1.5619994-1.5615278 4.0940006 0 5.656l.607.607c1.5619994 1.5615278 4.0940006 1.5615278 5.656 0l10.1-10.1c.5422941-.546113.7231157-1.3549492.465-2.08l2.1-2.1c3.078295 2.4180838 6.5495654 4.2886865 10.262 5.53.8277925.2739712 1.731165.2018457 2.505-.2.7838871-.3988409 1.3739903-1.0967272 1.637-1.936l8.52-26.835c.3633349-1.171065.0474298-2.4470294-.8203124-3.3133025-.8677421-.8662732-2.1442399-1.180016-3.3146876-.8146975l-11.818 3.747c-.7999153-8.393798-6.7366482-15.40428012-14.884-17.576v-.324c0-1.65685425-1.3431458-3-3-3h-4.006c-1.6568542 0-3 1.34314575-3 3v.32c-8.90701 2.36767597-15.08206678 10.463953-15.01 19.68v1h-1c-1.65685425 0-3 1.3431458-3 3v5c0 1.6568542 1.34314575 3 3 3zm19.843 22.592c-.791167.755814-2.036833.755814-2.828 0l-.607-.607c-.7807639-.7809997-.7807639-2.0470003 0-2.828l10.1-10.1 3.434 3.434zm10.708-12.324-1.819-1.819 9.193-9.192c.3904999-.3903819 1.0235001-.3903819 1.414 0l.4.4c.3903819.3904999.3903819 1.0235001 0 1.414zm22.763-26.206c.4591139-.1409976.9585633-.0173767 1.2989022.3214969.3403388.3388737.4661134.8377852.3270978 1.2975031l-8.518 26.832c-.1015877.3251651-.3286052.5964202-.6307871.753705-.3021819.1572847-.6545963.1876221-.9792129.084295-3.4155075-1.1412353-6.6147841-2.8487106-9.464-5.051l5.809-5.809c1.1711458-1.1714996 1.1711458-3.0705004 0-4.242l-.4-.4c-1.1714996-1.1711458-3.0705004-1.1711458-4.242 0l-5.815 5.803c-2.2029965-2.8490746-3.9111521-6.0483591-5.053-9.464-.1035536-.3250117-.0730959-.6779129.084613-.9803759.1577088-.3024631.4296218-.5294657.755387-.6306241zm-50.314 3.908c-.01620983-5.6488072 2.56485281-10.9916068 7-14.49v7.56c0 .5522847.4477153 1 1 1s1-.4477153 1-1v-8.912c1.2582462-.74643677 2.6055216-1.33137605 4.01-1.741v4.458c0 .5522847.4477153 1 1 1s1-.4477153 1-1v-6.845c0-.55228475.4477153-1 1-1h4.006c.5522847 0 1 .44771525 1 1v6.845c0 .5522847.4477153 1 1 1s1-.4477153 1-1v-4.453c1.3954734.40950436 2.7339584.9927398 3.984 1.736v8.912c0 .5522847.4477153 1 1 1s1-.4477153 1-1v-7.559c4.0359465 3.1861827 6.5534966 7.9166528 6.942 13.044l-7.796 2.475h-28.1460759zm-4 4.03c0-.5522847.44771525-1 1-1h25.178c-1.3109849.7791106-1.9050195 2.3641728-1.429 3.813.3603258 1.0827516.7755296 2.1464611 1.244 3.187h-24.993c-.55228475 0-1-.4477153-1-1z"></path></g></g></svg>